<svg width="16" height="16" viewBox="0 0 16 16" fill="none" xmlns="http://www.w3.org/2000/svg">
<path d="M14.6134 8.25321C14.6801 8.09091 14.6801 7.90885 14.6134 7.74655C14.5816 7.66471 14.5341 7.58995 14.4734 7.52655L9.80671 2.85988C9.74455 2.79772 9.67076 2.74841 9.58954 2.71477C9.50833 2.68113 9.42128 2.66382 9.33337 2.66382C9.15584 2.66382 8.98558 2.73434 8.86004 2.85988C8.79788 2.92204 8.74857 2.99583 8.71493 3.07705C8.68129 3.15826 8.66398 3.24531 8.66398 3.33321C8.66398 3.51075 8.73451 3.68101 8.86004 3.80655L12.3934 7.33321H2.00004C1.82323 7.33321 1.65366 7.40345 1.52864 7.52848C1.40361 7.6535 1.33337 7.82307 1.33337 7.99988C1.33337 8.17669 1.40361 8.34626 1.52864 8.47128C1.65366 8.59631 1.82323 8.66655 2.00004 8.66655H12.3934L8.86004 12.1932C8.79756 12.2552 8.74796 12.3289 8.71411 12.4102C8.68027 12.4914 8.66284 12.5785 8.66284 12.6665C8.66284 12.7546 8.68027 12.8417 8.71411 12.9229C8.74796 13.0042 8.79756 13.0779 8.86004 13.1399C8.92202 13.2024 8.99575 13.252 9.07699 13.2858C9.15823 13.3197 9.24537 13.3371 9.33337 13.3371C9.42138 13.3371 9.50852 13.3197 9.58976 13.2858C9.671 13.252 9.74473 13.2024 9.80671 13.1399L14.4734 8.47321C14.5341 8.40981 14.5816 8.33505 14.6134 8.25321Z" fill="#959595"/>
</svg>
