<svg width="60" height="60" viewBox="0 0 60 60" fill="none" xmlns="http://www.w3.org/2000/svg">
<path d="M28.7344 33.072C28.3101 33.072 27.9031 33.2406 27.603 33.5406C27.303 33.8407 27.1344 34.2477 27.1344 34.672V35.0448C27.1361 36.4378 27.6902 37.7733 28.6752 38.7584C29.6603 39.7434 30.9958 40.2975 32.3888 40.2992H33.4328C34.8258 40.2975 36.1613 39.7434 37.1463 38.7584C38.1314 37.7733 38.6855 36.4378 38.6872 35.0448V33.8232C38.6855 32.4302 38.1314 31.0947 37.1463 30.1097C36.1613 29.1246 34.8258 28.5705 33.4328 28.5688H32.3888C31.8443 28.5682 31.3222 28.3516 30.9371 27.9667C30.552 27.5817 30.3352 27.0597 30.3344 26.5152V25.2752C30.335 24.7305 30.5517 24.2084 30.9368 23.8232C31.322 23.4381 31.8441 23.2214 32.3888 23.2208H33.4328C33.9775 23.2214 34.4996 23.4381 34.8848 23.8232C35.2699 24.2084 35.4866 24.7305 35.4872 25.2752C35.4872 25.6996 35.6558 26.1065 35.9558 26.4066C36.2559 26.7066 36.6629 26.8752 37.0872 26.8752C37.5115 26.8752 37.9185 26.7066 38.2186 26.4066C38.5186 26.1065 38.6872 25.6996 38.6872 25.2752C38.6855 23.8822 38.1314 22.5467 37.1463 21.5617C36.1613 20.5766 34.8258 20.0225 33.4328 20.0208H32.3888C30.9958 20.0225 29.6603 20.5766 28.6752 21.5617C27.6902 22.5467 27.1361 23.8822 27.1344 25.2752V26.5152C27.1361 27.9082 27.6903 29.2436 28.6753 30.2285C29.6603 31.2134 30.9958 31.7673 32.3888 31.7688H33.4328C33.9775 31.7694 34.4996 31.9861 34.8848 32.3712C35.2699 32.7564 35.4866 33.2785 35.4872 33.8232V35.0448C35.4866 35.5895 35.2699 36.1117 34.8848 36.4968C34.4996 36.8819 33.9775 37.0986 33.4328 37.0992H32.3888C31.8441 37.0986 31.322 36.8819 30.9368 36.4968C30.5517 36.1117 30.335 35.5895 30.3344 35.0448V34.672C30.3344 34.2477 30.1658 33.8407 29.8658 33.5406C29.5657 33.2406 29.1587 33.072 28.7344 33.072Z" fill="#959595"/>
<path d="M14.412 41.9288C15.2149 42.3849 16.1234 42.6225 17.0468 42.6178C17.9701 42.6131 18.8761 42.3664 19.6744 41.9022C20.4726 41.438 21.1351 40.7726 21.5959 39.9723C22.0566 39.1721 22.2994 38.265 22.3 37.3416V26.9952C22.3 26.5709 22.1315 26.1639 21.8314 25.8638C21.5314 25.5638 21.1244 25.3952 20.7 25.3952C20.2757 25.3952 19.8687 25.5638 19.5687 25.8638C19.2686 26.1639 19.1 26.5709 19.1 26.9952V37.3416C19.0993 37.7049 19.0034 38.0616 18.8219 38.3763C18.6404 38.691 18.3797 38.9526 18.0657 39.1352C17.7517 39.3179 17.3953 39.4151 17.0321 39.4172C16.6688 39.4193 16.3113 39.3262 15.9952 39.1472C15.7468 39.0056 15.54 38.8012 15.3954 38.5545C15.2508 38.3079 15.1735 38.0275 15.1712 37.7416L15.0752 22.4448C15.074 22.1589 15.1479 21.8776 15.2894 21.6291C15.4309 21.3807 15.6351 21.1737 15.8816 21.0288L29.0816 13.2976C29.3286 13.1533 29.6091 13.0764 29.895 13.0746C30.181 13.0728 30.4625 13.1461 30.7112 13.2872L44.0056 20.8528C44.254 20.9944 44.4609 21.1988 44.6055 21.4455C44.7501 21.6922 44.8274 21.9725 44.8296 22.2584L44.9256 37.5552C44.9268 37.8412 44.853 38.1224 44.7115 38.3709C44.57 38.6194 44.3658 38.8264 44.1192 38.9712L30.9192 46.7024C30.6723 46.8467 30.3918 46.9236 30.1058 46.9254C29.8198 46.9273 29.5384 46.8539 29.2896 46.7128L27.336 45.6C27.1533 45.4941 26.9515 45.4254 26.7421 45.3979C26.5328 45.3703 26.32 45.3845 26.1162 45.4396C25.9123 45.4947 25.7214 45.5896 25.5544 45.7188C25.3873 45.8481 25.2476 46.0091 25.1431 46.1926C25.0386 46.3761 24.9715 46.5785 24.9456 46.7881C24.9197 46.9976 24.9356 47.2103 24.9923 47.4137C25.0489 47.6171 25.1453 47.8073 25.2759 47.9733C25.4064 48.1393 25.5685 48.2778 25.7528 48.3808L27.7072 49.4928C28.4444 49.911 29.2785 50.1283 30.126 50.1231C30.9735 50.1179 31.8048 49.8904 32.5368 49.4632L45.7368 41.732C46.4674 41.3024 47.0724 40.6887 47.4916 39.9521C47.9108 39.2155 48.1294 38.3819 48.1256 37.5344L48.0288 22.24C48.0221 21.3926 47.7931 20.5618 47.3648 19.8305C46.9365 19.0993 46.3238 18.4932 45.588 18.0728L32.2928 10.5064C31.5556 10.0883 30.7216 9.87106 29.8741 9.87625C29.0266 9.88144 28.1953 10.1089 27.4632 10.536L14.2632 18.2672C13.5327 18.6968 12.9277 19.3106 12.5085 20.0471C12.0893 20.7837 11.8707 21.6173 11.8744 22.4648L11.9712 37.76C11.9777 38.6077 12.2066 39.4388 12.6349 40.1704C13.0632 40.9019 13.676 41.5083 14.412 41.9288Z" fill="#959595"/>
</svg>
