<svg width="60" height="60" viewBox="0 0 60 60" fill="none" xmlns="http://www.w3.org/2000/svg">
<path d="M27.7575 26.0948C26.9927 26.5364 26.376 27.1948 25.9855 27.9868C25.5949 28.7788 25.448 29.6688 25.5632 30.5443C25.6785 31.4198 26.0508 32.2415 26.6331 32.9054C27.2153 33.5693 27.9814 34.0457 28.8344 34.2742C29.6873 34.5027 30.5889 34.4732 31.4251 34.1893C32.2613 33.9054 32.9946 33.38 33.5321 32.6794C34.0697 31.9788 34.3874 31.1345 34.4451 30.2533C34.5028 29.3721 34.298 28.4936 33.8564 27.7289C33.2642 26.7035 32.2891 25.9553 31.1453 25.6488C30.0016 25.3424 28.7829 25.5028 27.7575 26.0948ZM47.7692 30.939C47.4761 30.604 47.1668 30.2681 46.8413 29.9313C47.0687 29.6924 47.2887 29.4536 47.5013 29.2151C51.5159 24.7044 53.2102 20.1808 51.6403 17.4613C50.1348 14.8538 45.6567 14.0767 40.0504 15.1668C39.4982 15.2748 38.9491 15.3967 38.4029 15.5324C38.2984 15.172 38.1872 14.8136 38.0694 14.4574C36.1675 8.72605 33.0952 4.99803 29.9551 5C26.9441 5.00138 24.0339 8.49273 22.1775 13.8938C21.9948 14.4266 21.8258 14.9638 21.6706 15.5055C21.3054 15.4159 20.9388 15.3332 20.5706 15.2573C14.6556 14.0428 9.89138 14.8427 8.32446 17.5638C6.82196 20.1732 8.39328 24.4383 12.1457 28.744C12.5179 29.1701 12.9006 29.5866 13.2938 29.9935C12.8302 30.471 12.3913 30.9482 11.9822 31.4227C8.32066 35.6677 6.83918 39.8631 8.33926 42.4613C9.88848 45.145 14.5856 46.0222 20.3028 44.8972C20.7661 44.8053 21.2269 44.702 21.6851 44.5871C21.8529 45.1731 22.037 45.7539 22.2374 46.3297C24.0857 51.6223 26.9796 55.0012 29.9799 55.0001C33.0785 54.9983 36.1848 51.368 38.0668 45.8533C38.2154 45.4175 38.3561 44.9649 38.4895 44.4989C39.0814 44.6462 39.6771 44.7768 40.2766 44.8909C45.785 45.9331 50.1579 45.1134 51.6552 42.5134C53.2014 39.8277 51.6072 35.3233 47.7692 30.939ZM10.1754 18.6296C11.1401 16.9546 15.0335 16.3011 20.1406 17.3496C20.467 17.4167 20.799 17.4917 21.1366 17.5746C20.638 19.7803 20.2862 22.0166 20.0834 24.2688C18.2407 25.5652 16.4838 26.9794 14.8237 28.5028C14.458 28.1245 14.102 27.7371 13.7558 27.3405C10.5406 23.6513 9.26996 20.202 10.1754 18.6296ZM19.8921 32.9498C18.6157 31.9833 17.4295 30.9932 16.3528 29.9973C17.4287 29.0076 18.6157 28.0208 19.8895 27.0569C19.8437 28.0389 19.821 29.0215 19.8214 30.0049C19.8221 30.9869 19.8457 31.9686 19.8921 32.9498ZM19.8906 42.8014C17.7237 43.2832 15.4867 43.3621 13.2913 43.0342C12.6894 42.9873 12.1036 42.8176 11.57 42.5353C11.0364 42.2531 10.5663 41.8645 10.1888 41.3934C9.27861 39.8167 10.4682 36.4484 13.5996 32.8179C13.9933 32.3629 14.3999 31.9197 14.8194 31.4885C16.4797 33.0198 18.2394 34.4396 20.0872 35.7387C20.2927 38.0197 20.6486 40.2846 21.1527 42.5187C20.7344 42.6233 20.3137 42.7175 19.8906 42.8014ZM37.6434 22.703C36.8049 22.1746 35.9561 21.6632 35.0969 21.1688C34.2514 20.6822 33.3957 20.2138 32.5299 19.7637C34.0124 19.1403 35.4696 18.608 36.8765 18.1741C37.2081 19.6699 37.4641 21.1814 37.6434 22.703ZM24.1975 14.588C25.788 9.96018 28.1415 7.1367 29.9563 7.13593C31.889 7.135 34.4001 10.1816 36.0421 15.13C36.1487 15.4526 36.2496 15.777 36.3446 16.1032C34.1874 16.7723 32.0768 17.5834 30.0267 18.5312C27.9851 17.5722 25.8812 16.7521 23.7292 16.0764C23.873 15.5765 24.0291 15.0804 24.1975 14.588ZM23.1965 18.1475C24.664 18.6095 26.1072 19.1452 27.5207 19.7525C25.7693 20.6563 24.0632 21.6408 22.4023 22.706C22.603 21.111 22.87 19.5828 23.1965 18.1475ZM22.406 37.2992C23.2342 37.8294 24.0746 38.34 24.927 38.831C25.7966 39.3317 26.6777 39.8113 27.5705 40.2699C26.1461 40.8983 24.6905 41.4531 23.2093 41.9322C22.879 40.477 22.6091 38.922 22.406 37.2992ZM36.0452 45.163C35.3801 47.2808 34.3309 49.2581 32.95 50.9961C32.6087 51.4939 32.1688 51.9167 31.6578 52.2379C31.1468 52.5591 30.5754 52.7721 29.9788 52.8638C28.1583 52.8648 25.8346 50.1512 24.254 45.6251C24.0678 45.09 23.8966 44.55 23.7402 44.0051C25.9025 43.3076 28.015 42.4642 30.0632 41.4809C32.1301 42.4348 34.2575 43.252 36.4316 43.9271C36.3128 44.3421 36.184 44.754 36.0452 45.163ZM36.9508 41.8524C35.5278 41.4124 34.0493 40.8711 32.5454 40.2387C33.3932 39.7925 34.2471 39.3213 35.1072 38.8251C35.9898 38.3154 36.8499 37.793 37.6875 37.2579C37.5206 38.801 37.2748 40.3345 36.9508 41.8524ZM38.0665 29.9957C38.0684 31.514 38.021 33.031 37.9243 34.5468C36.6926 35.3804 35.3923 36.1943 34.0393 36.9754C32.692 37.7533 31.357 38.4682 30.0475 39.1151C28.6694 38.4547 27.318 37.7431 25.9931 36.9801C24.6756 36.2218 23.3884 35.4143 22.1314 34.5577C22.0165 33.0423 21.9586 31.5242 21.9577 30.0033C21.9567 28.4836 22.0136 26.9658 22.1279 25.4492C23.3592 24.6083 24.6501 23.795 25.9848 23.0245C27.3256 22.2502 28.6773 21.5384 30.0215 20.8933C31.3826 21.5547 32.7191 22.2636 34.0311 23.0199C35.3476 23.7765 36.6384 24.5754 37.9036 25.4166C38.0122 26.9406 38.0664 28.467 38.0665 29.9957ZM40.4583 17.2637C45.2617 16.3294 48.8833 16.9579 49.7906 18.5292C50.7571 20.2033 49.3719 23.9005 45.906 27.7951C45.7145 28.01 45.5157 28.2259 45.3099 28.4425C43.6211 26.916 41.8303 25.5061 39.95 24.2229C39.7602 21.9953 39.4216 19.7829 38.9363 17.6006C39.4535 17.4733 39.9608 17.361 40.4583 17.2637ZM40.1336 26.9754C41.402 27.9014 42.6214 28.8926 43.787 29.945C42.6265 31.0147 41.411 32.023 40.1452 32.9658C40.184 31.9759 40.203 30.9856 40.2024 29.9947C40.202 28.9881 40.179 27.9816 40.1336 26.9754ZM49.8039 41.4473C48.8952 43.0252 45.3842 43.6832 40.6733 42.7919C40.1335 42.69 39.5795 42.5687 39.0115 42.428C39.485 40.2175 39.8087 37.9776 39.9801 35.7236C41.8573 34.4179 43.6424 32.9846 45.3228 31.4339C45.6169 31.7394 45.8966 32.0434 46.1619 32.3461C47.6646 33.9799 48.8536 35.8763 49.6696 37.9407C49.9305 38.4849 50.0771 39.0769 50.1002 39.6801C50.1233 40.2832 50.0224 40.8847 49.8039 41.4473Z" fill="#959595"/>
</svg>
