<svg width="60" height="60" viewBox="0 0 60 60" fill="none" xmlns="http://www.w3.org/2000/svg">
<g clip-path="url(#clip0_1776_29)">
<path d="M55 0H5C2.24 0 0 2.2375 0 5V55C0 57.7625 2.24 60 5 60H55C57.76 60 60 57.7625 60 55V5C60 2.2375 57.76 0 55 0ZM44.5325 42.1325V42.1375C44.0325 43.3425 43.24 44.405 42.225 45.2225C41.175 46.0725 39.845 46.7725 38.2075 47.2725C36.5725 47.78 34.6275 48.035 32.375 48.035H16.295V13.035H33.3C36.445 13.035 38.965 13.7425 40.85 15.185C42.75 16.635 43.695 18.795 43.695 21.71C43.695 23.4725 43.265 24.985 42.4 26.235C41.54 27.4775 40.3 28.45 38.7 29.125V29.24C40.835 29.69 42.4875 30.7025 43.575 32.2775C44.6625 33.8525 45.22 35.8425 45.22 38.245C45.22 39.59 44.96 40.87 44.47 42.065L44.5325 42.1325Z" fill="#959595"/>
<path d="M37.5925 33.5125C36.5675 32.575 35.1275 32.1175 33.2675 32.1175H22.4625V43.0375H33.2975C35.1475 43.0375 36.5975 42.5575 37.6225 41.5875C38.6475 40.625 39.1725 39.2525 39.1725 37.4875C39.155 35.7625 38.6475 34.4275 37.6225 33.5125H37.5925ZM36.0825 26.455H36.0925C37.0825 25.615 37.5675 24.4125 37.5675 22.845C37.5675 21.085 37.13 19.835 36.2425 19.12C35.3625 18.4075 34.0925 18.0375 32.4225 18.0375H22.4225V27.695H32.4225C33.88 27.695 35.1225 27.27 36.0825 26.455Z" fill="#959595"/>
</g>
<defs>
<clipPath id="clip0_1776_29">
<rect width="60" height="60" fill="white"/>
</clipPath>
</defs>
</svg>
