<svg width="60" height="60" viewBox="0 0 60 60" fill="none" xmlns="http://www.w3.org/2000/svg">
<path d="M39.2914 23.0057H20.7086C17.7908 22.892 15.0304 21.6529 13.0062 19.5483C10.9821 17.4438 9.85144 14.6372 9.85144 11.7172C9.85144 8.79715 10.9821 5.99056 13.0062 3.88598C15.0304 1.7814 17.7908 0.542315 20.7086 0.428589H39.2914C42.2092 0.542315 44.9697 1.7814 46.9938 3.88598C49.018 5.99056 50.1486 8.79715 50.1486 11.7172C50.1486 14.6372 49.018 17.4438 46.9938 19.5483C44.9697 21.6529 42.2092 22.892 39.2914 23.0057ZM20.7086 4.7143C18.9112 4.80326 17.2169 5.57988 15.9763 6.88342C14.7357 8.18696 14.0438 9.91761 14.0438 11.7172C14.0438 13.5167 14.7357 15.2474 15.9763 16.5509C17.2169 17.8544 18.9112 18.6311 20.7086 18.72H39.2914C41.0888 18.6311 42.7831 17.8544 44.0238 16.5509C45.2644 15.2474 45.9563 13.5167 45.9563 11.7172C45.9563 9.91761 45.2644 8.18696 44.0238 6.88342C42.7831 5.57988 41.0888 4.80326 39.2914 4.7143H20.7086Z" fill="#959595"/>
<path d="M29.8629 41.28H20.7086C17.7169 41.28 14.8478 40.0915 12.7324 37.9761C10.617 35.8607 9.42859 32.9916 9.42859 30C9.42859 27.0083 10.617 24.1392 12.7324 22.0238C14.8478 19.9084 17.7169 18.72 20.7086 18.72C21.2769 18.72 21.822 18.9457 22.2238 19.3476C22.6257 19.7495 22.8514 20.2945 22.8514 20.8628C22.8514 21.4311 22.6257 21.9762 22.2238 22.3781C21.822 22.7799 21.2769 23.0057 20.7086 23.0057C18.8536 23.0057 17.0746 23.7426 15.7629 25.0543C14.4512 26.3659 13.7143 28.145 13.7143 30C13.7143 31.855 14.4512 33.634 15.7629 34.9457C17.0746 36.2574 18.8536 36.9943 20.7086 36.9943H27.72V20.8628C27.72 20.2945 27.9458 19.7495 28.3476 19.3476C28.7495 18.9457 29.2946 18.72 29.8629 18.72C30.4312 18.72 30.9762 18.9457 31.3781 19.3476C31.78 19.7495 32.0057 20.2945 32.0057 20.8628V39.1371C32.0057 39.7054 31.78 40.2505 31.3781 40.6523C30.9762 41.0542 30.4312 41.28 29.8629 41.28Z" fill="#959595"/>
<path d="M20.8457 59.5714C19.3262 59.6307 17.8104 59.3825 16.3892 58.8419C14.9679 58.3013 13.6704 57.4793 12.5745 56.4252C11.4785 55.3711 10.6066 54.1067 10.0111 52.7075C9.4155 51.3084 9.10852 49.8035 9.10852 48.2829C9.10852 46.7623 9.4155 45.2573 10.0111 43.8582C10.6066 42.4591 11.4785 41.1946 12.5745 40.1405C13.6704 39.0864 14.9679 38.2644 16.3892 37.7238C17.8104 37.1832 19.3262 36.9351 20.8457 36.9943C21.414 36.9943 21.959 37.2201 22.3609 37.6219C22.7627 38.0238 22.9885 38.5688 22.9885 39.1371C22.9885 39.7055 22.7627 40.2505 22.3609 40.6524C21.959 41.0542 21.414 41.28 20.8457 41.28C19.4582 41.2766 18.1009 41.6849 16.9457 42.4533C15.7904 43.2217 14.889 44.3155 14.3557 45.5964C13.8224 46.8772 13.6811 48.2875 13.9497 49.6488C14.2183 51.01 14.8847 52.2609 15.8646 53.2432C16.8445 54.2254 18.0938 54.8949 19.4543 55.1669C20.8149 55.4388 22.2255 55.3009 23.5077 54.7708C24.7899 54.2406 25.8859 53.3419 26.6571 52.1885C27.4283 51.0352 27.8399 49.6789 27.8399 48.2914V39.1371C27.8399 38.5688 28.0657 38.0238 28.4676 37.6219C28.8694 37.2201 29.4145 36.9943 29.9828 36.9943C30.5511 36.9943 31.0962 37.2201 31.498 37.6219C31.8999 38.0238 32.1257 38.5688 32.1257 39.1371V48.2914C32.1211 51.2817 30.9312 54.1482 28.8168 56.2626C26.7024 58.377 23.8359 59.5669 20.8457 59.5714Z" fill="#959595"/>
<path d="M39.1372 41.5715C36.8757 41.5715 34.665 40.9008 32.7846 39.6444C30.9043 38.388 29.4387 36.6022 28.5733 34.5129C27.7078 32.4235 27.4814 30.1245 27.9226 27.9065C28.3638 25.6884 29.4528 23.651 31.0519 22.0519C32.651 20.4528 34.6884 19.3638 36.9065 18.9226C39.1245 18.4814 41.4235 18.7078 43.5129 19.5733C45.6022 20.4387 47.388 21.9043 48.6444 23.7846C49.9008 25.665 50.5715 27.8757 50.5715 30.1372C50.5715 31.6387 50.2757 33.1256 49.7011 34.5129C49.1265 35.9002 48.2842 37.1607 47.2224 38.2224C46.1607 39.2842 44.9002 40.1265 43.5129 40.7011C42.1256 41.2757 40.6387 41.5715 39.1372 41.5715ZM39.1372 23.0057C37.7226 23.0057 36.3398 23.4254 35.1639 24.2117C33.9879 24.998 33.0717 26.1154 32.5311 27.4227C31.9906 28.7299 31.85 30.1681 32.1272 31.5552C32.4045 32.9424 33.087 34.2161 34.0885 35.2152C35.0899 36.2142 36.3653 36.8937 37.7531 37.1676C39.1409 37.4415 40.5788 37.2975 41.8847 36.7538C43.1906 36.2101 44.3059 35.2912 45.0893 34.1134C45.8728 32.9355 46.2891 31.5518 46.2857 30.1372C46.2812 28.2442 45.526 26.4304 44.1859 25.0934C42.8458 23.7565 41.0301 23.0057 39.1372 23.0057Z" fill="#959595"/>
<path d="M29.8628 23.0057C29.5814 23.0035 29.3032 22.9458 29.0441 22.8361C28.785 22.7263 28.55 22.5666 28.3526 22.366C28.1552 22.1654 27.9993 21.9279 27.8937 21.6671C27.7881 21.4062 27.7349 21.1271 27.7371 20.8457L27.8743 2.5543C27.8788 1.99191 28.1042 1.45383 28.5018 1.05615C28.8995 0.658468 29.4376 0.43307 30 0.428589C30.2814 0.430831 30.5596 0.488481 30.8187 0.598246C31.0779 0.708012 31.3128 0.867743 31.5102 1.06832C31.7076 1.2689 31.8636 1.50639 31.9692 1.76724C32.0748 2.02809 32.128 2.30718 32.1257 2.58859L31.9886 20.88C31.9797 21.441 31.7529 21.9766 31.3562 22.3733C30.9594 22.7701 30.4239 22.9969 29.8628 23.0057Z" fill="#959595"/>
</svg>
