<svg width="60" height="60" viewBox="0 0 60 60" fill="none" xmlns="http://www.w3.org/2000/svg">
<g clip-path="url(#clip0_1776_8)">
<path d="M58.9 27.325L32.65 1.07497C31.9346 0.396214 30.9861 0.0178223 30 0.0178223C29.0138 0.0178223 28.0653 0.396214 27.35 1.07497L22.35 6.07497C22.2328 6.19118 22.1398 6.32943 22.0764 6.48175C22.0129 6.63408 21.9802 6.79746 21.9802 6.96247C21.9802 7.12749 22.0129 7.29087 22.0764 7.44319C22.1398 7.59552 22.2328 7.73377 22.35 7.84997L26.85 12.5C27.0233 12.673 27.2437 12.7914 27.4837 12.8403C27.7237 12.8891 27.9728 12.8664 28.2 12.775C28.9622 12.4808 29.785 12.3779 30.5962 12.4752C31.4074 12.5726 32.1825 12.8673 32.8534 13.3335C33.5244 13.7998 34.0709 14.4233 34.4451 15.1497C34.8193 15.876 35.0098 16.683 35 17.5C34.9936 18.1349 34.8663 18.7627 34.625 19.35C34.5335 19.5772 34.5108 19.8263 34.5597 20.0663C34.6086 20.3063 34.7269 20.5266 34.9 20.7L39.3 25C39.4733 25.173 39.6937 25.2914 39.9337 25.3403C40.1737 25.3891 40.4227 25.3664 40.65 25.275C41.6407 24.8806 42.7315 24.8132 43.7632 25.0828C44.7949 25.3523 45.7134 25.9446 46.3846 26.7732C47.0558 27.6018 47.4445 28.6232 47.4939 29.6884C47.5434 30.7536 47.2511 31.8067 46.6596 32.6939C46.0681 33.5811 45.2085 34.256 44.2062 34.62C43.2039 34.984 42.1115 35.0181 41.0885 34.7172C40.0656 34.4164 39.1655 33.7963 38.5199 32.9477C37.8743 32.099 37.5169 31.0662 37.5 30C37.5077 29.3919 37.6263 28.7904 37.85 28.225C37.9361 28.001 37.956 27.757 37.9073 27.522C37.8585 27.2871 37.7431 27.0711 37.575 26.9L33.375 22.675C33.2003 22.5037 32.9791 22.3874 32.7389 22.3406C32.4988 22.2938 32.2502 22.3185 32.0239 22.4117C31.7977 22.5048 31.6037 22.6624 31.4661 22.8647C31.3286 23.067 31.2534 23.3053 31.25 23.55V36.75C31.2491 36.9939 31.3197 37.2328 31.4529 37.4372C31.5862 37.6415 31.7764 37.8024 32 37.9C33.0528 38.3595 33.9153 39.1674 34.4424 40.188C34.9695 41.2086 35.1292 42.3796 34.8945 43.5041C34.6598 44.6286 34.0451 45.6379 33.1537 46.3625C32.2623 47.087 31.1487 47.4826 30 47.4826C28.8513 47.4826 27.7376 47.087 26.8462 46.3625C25.9548 45.6379 25.3401 44.6286 25.1054 43.5041C24.8707 42.3796 25.0304 41.2086 25.5575 40.188C26.0847 39.1674 26.9472 38.3595 28 37.9C28.2236 37.8024 28.4137 37.6415 28.547 37.4372C28.6803 37.2328 28.7508 36.9939 28.75 36.75V23.2C28.7508 22.956 28.6803 22.7171 28.547 22.5128C28.4137 22.3084 28.2236 22.1476 28 22.05C26.8174 21.5317 25.8811 20.5761 25.3872 19.3832C24.8932 18.1903 24.8799 16.8525 25.35 15.65C25.427 15.419 25.4349 15.1706 25.3727 14.9352C25.3106 14.6999 25.181 14.4878 25 14.325L20.475 9.69997C20.3588 9.58281 20.2205 9.48982 20.0682 9.42636C19.9159 9.3629 19.7525 9.33023 19.5875 9.33023C19.4225 9.33023 19.2591 9.3629 19.1067 9.42636C18.9544 9.48982 18.8162 9.58281 18.7 9.69997L1.19997 27.2C0.497719 27.9031 0.103271 28.8562 0.103271 29.85C0.103271 30.8437 0.497719 31.7968 1.19997 32.5L27.45 58.775C28.1531 59.4772 29.1062 59.8717 30.1 59.8717C31.0937 59.8717 32.0468 59.4772 32.75 58.775L59 32.5C59.7022 31.7968 60.0967 30.8437 60.0967 29.85C60.0967 28.8562 59.7022 27.9031 59 27.2L58.9 27.325Z" fill="#959595"/>
</g>
<defs>
<clipPath id="clip0_1776_8">
<rect width="60" height="60" fill="white"/>
</clipPath>
</defs>
</svg>
