<svg width="20" height="20" viewBox="0 0 20 20" fill="none" xmlns="http://www.w3.org/2000/svg">
<path d="M9.94771 0.000529225C7.54062 0.00127917 5.2154 0.892271 3.40288 2.50841C1.59037 4.12455 0.413438 6.35627 0.0901692 8.79006C-0.2331 11.2238 0.319209 13.6947 1.64476 15.7448C2.9703 17.7948 4.97923 19.2852 7.29928 19.9396C7.39882 19.9778 7.50508 19.9945 7.61127 19.9884C7.71746 19.9824 7.82125 19.9539 7.91604 19.9047C8.01082 19.8554 8.09451 19.7866 8.16177 19.7026C8.22903 19.6185 8.27838 19.5211 8.30668 19.4164C8.33498 19.3118 8.34161 19.2024 8.32614 19.095C8.31066 18.9876 8.27343 18.8848 8.21682 18.7929C8.1602 18.701 8.08545 18.6222 7.99732 18.5615C7.90919 18.5007 7.80963 18.4594 7.70497 18.4401C5.77848 17.9018 4.10227 16.6823 2.97576 14.9993C1.84924 13.3164 1.34578 11.2796 1.55532 9.25281C1.76486 7.22603 2.67374 5.34126 4.11962 3.93517C5.5655 2.52908 7.4542 1.69325 9.44835 1.57698C11.4425 1.46071 13.4122 2.07158 15.0057 3.30046C16.5991 4.52934 17.7125 6.2962 18.147 8.28543C18.5814 10.2747 18.3086 12.3567 17.3773 14.1596C16.446 15.9626 14.9169 17.369 13.063 18.1277C13.1113 17.1014 13.0342 16.073 12.8334 15.0661C13.9214 14.8199 14.8916 14.195 15.5773 13.2986C16.2631 12.4023 16.6217 11.2903 16.5917 10.1536C16.647 9.08439 16.3653 8.02521 15.788 7.13111C15.895 6.24399 15.79 5.34363 15.4818 4.50693C15.4244 4.33247 15.3084 4.1843 15.1544 4.08857C15.0004 3.99283 14.8181 3.95568 14.6399 3.98366C13.7167 4.11231 12.8344 4.45421 12.0603 4.98335C11.3707 4.79627 10.6612 4.69659 9.94771 4.68656C9.1721 4.70741 8.4015 4.82011 7.65139 5.0224C6.90734 4.44163 6.00083 4.11872 5.0642 4.10081C4.89917 4.09087 4.73542 4.13571 4.59744 4.22862C4.45946 4.32154 4.35468 4.45754 4.29876 4.61627C4.01804 5.41352 3.92113 6.26604 4.01555 7.10768C3.46632 8.02308 3.18728 9.08059 3.21183 10.1536C3.2402 11.2846 3.62919 12.3753 4.31984 13.2604C5.01048 14.1455 5.96512 14.7767 7.03903 15.0583C6.98987 15.2617 6.95155 15.4677 6.92422 15.6753C6.15878 15.7222 5.71482 15.2458 5.1484 14.5194C4.81496 13.9477 4.28603 13.5221 3.66344 13.3245C3.4701 13.2893 3.27091 13.3313 3.10707 13.4418C2.94323 13.5523 2.82727 13.7228 2.78319 13.9181C2.74079 14.1135 2.77354 14.318 2.87467 14.4895C2.9758 14.661 3.13759 14.7863 3.32665 14.8396C3.44912 14.8396 3.74764 15.2458 3.91604 15.4723C4.22104 15.9788 4.64112 16.403 5.14075 16.7088C5.64038 17.0147 6.20486 17.1933 6.78644 17.2295C7.12285 17.2291 7.45763 17.1818 7.78151 17.0889C7.86081 17.065 7.93577 17.028 8.00349 16.9796C8.05937 16.9345 8.10616 16.8788 8.14127 16.8156C8.16562 16.7961 8.18635 16.7723 8.2025 16.7453C8.22238 16.7028 8.23778 16.6583 8.24843 16.6125C8.26723 16.5616 8.28257 16.5094 8.29436 16.4563C8.29181 15.9373 8.41263 15.4255 8.64646 14.9646C8.74157 14.8511 8.80282 14.7122 8.82294 14.5644C8.84307 14.4165 8.82123 14.2658 8.76001 14.1302C8.69879 13.9946 8.60076 13.8797 8.47754 13.7992C8.35431 13.7187 8.21105 13.6759 8.06472 13.6759C7.17759 13.6248 6.34219 13.2334 5.72607 12.5801C5.10996 11.9269 4.75869 11.0601 4.74271 10.1536C4.70481 9.31897 4.93898 8.49504 5.40865 7.81059C5.48482 7.72342 5.54086 7.61994 5.57265 7.50776C5.60445 7.39557 5.61118 7.27754 5.59235 7.16235C5.50427 6.68493 5.50427 6.19492 5.59235 5.71749C6.09324 5.82572 6.55454 6.07458 6.92422 6.43602C7.024 6.53372 7.14786 6.60201 7.28264 6.63364C7.41741 6.66527 7.55807 6.65905 7.68966 6.61565C8.42524 6.40156 9.18334 6.27832 9.94771 6.24858C10.6356 6.26612 11.318 6.3791 11.9761 6.58441C12.1044 6.63289 12.243 6.64543 12.3776 6.6207C12.5123 6.59598 12.6379 6.5349 12.7416 6.44383C13.1875 6.06891 13.7109 5.8019 14.2724 5.66282C14.3872 6.15316 14.3872 6.6642 14.2724 7.15454C14.2425 7.29521 14.2494 7.44143 14.2924 7.57853C14.3354 7.71562 14.413 7.83875 14.5174 7.93555C14.9667 8.57827 15.1609 9.37075 15.0608 10.1536C15.0789 10.6126 15.0042 11.0706 14.8414 11.4989C14.6787 11.9273 14.4313 12.3169 14.1147 12.6435C13.7982 12.9702 13.4191 13.227 13.0012 13.3979C12.5832 13.5687 12.1353 13.6501 11.6853 13.6369C11.5289 13.6364 11.3761 13.6847 11.2474 13.7755C11.1188 13.8663 11.0205 13.9951 10.9657 14.1445C10.9102 14.2941 10.901 14.4574 10.9393 14.6124C10.9776 14.7674 11.0617 14.9067 11.1801 15.0115C11.6317 15.4098 11.5628 18.1355 11.5398 19.1977C11.5368 19.3189 11.5616 19.4392 11.612 19.549C11.6625 19.6588 11.7374 19.7551 11.8307 19.8303C11.9664 19.9377 12.1335 19.9955 12.3053 19.9943C12.3688 20.0019 12.4331 20.0019 12.4966 19.9943C14.8561 19.3834 16.9143 17.9112 18.2817 15.8563C19.6491 13.8015 20.2308 11.3064 19.9168 8.84342C19.6028 6.38039 18.4149 4.12025 16.5778 2.49068C14.7407 0.861117 12.3818 -0.024818 9.94771 0.000529225Z" fill="#BABABA"/>
</svg>
