<svg width="20" height="20" viewBox="0 0 20 20" fill="none" xmlns="http://www.w3.org/2000/svg">
<path fill-rule="evenodd" clip-rule="evenodd" d="M11.3528 8.1816C12.476 6.82618 13.7463 6.1387 15.3524 6.22169C17.9653 6.35649 19.8044 8.26573 19.9366 11.2464C20.0527 13.8716 19.9703 16.506 19.9881 19.1359C19.9925 19.7669 19.7109 20.0028 19.1339 19.9875C18.3609 19.967 17.5852 19.9483 16.8141 19.9956C16.0491 20.0425 15.7581 19.7202 15.7713 18.9227C15.8014 17.1373 15.7828 15.3505 15.7795 13.5645C15.7785 13.0777 15.7842 12.5887 15.748 12.1042C15.6363 10.6048 14.798 9.69988 13.5552 9.71005C12.2778 9.72038 11.2444 10.7978 11.2219 12.2313C11.1889 14.3416 11.2088 16.4528 11.2046 18.5635C11.2016 19.9769 11.2005 19.9769 9.87097 19.986C6.99598 20.0054 6.99707 20.0054 6.99598 16.9872C6.99489 13.9023 7.01629 10.8165 6.97348 7.73225C6.96114 6.83913 7.24567 6.48146 8.0941 6.56493C8.58472 6.61331 9.08332 6.57034 9.57863 6.57247C11.0564 6.57936 11.0564 6.58018 11.3528 8.1816ZM0.300218 13.2232C0.300218 11.373 0.332562 9.52194 0.286 7.67322C0.264593 6.80863 0.579124 6.50934 1.37318 6.56067C2.14349 6.61019 2.91943 6.58855 3.69193 6.57133C4.27224 6.5587 4.53458 6.80666 4.53239 7.43559C4.51864 11.3307 4.51677 15.2252 4.52396 19.1203C4.52505 19.7438 4.26818 20.0008 3.68396 19.9879C2.84943 19.9692 2.01334 19.9623 1.17943 19.9913C0.53928 20.0138 0.298812 19.7266 0.305687 19.0654C0.326 17.1181 0.312875 15.1703 0.312875 13.223C0.308968 13.2232 0.304593 13.2232 0.300218 13.2232ZM2.37224 4.64044C1.01475 4.63437 0.00928174 3.65318 6.30146e-05 2.32547C-0.00931196 1.02038 1.0285 0.000984512 2.36677 5.34904e-07C3.82302 -0.000819446 4.80927 0.941174 4.80349 2.32711C4.79724 3.73846 3.84255 4.6465 2.37224 4.64044Z" fill="#BABABA"/>
</svg>
