<svg width="60" height="60" viewBox="0 0 60 60" fill="none" xmlns="http://www.w3.org/2000/svg">
<g clip-path="url(#clip0_1776_26)">
<path d="M30 60C46.5675 60 60 46.5675 60 30C60 13.4325 46.5675 0 30 0C13.4325 0 0 13.4325 0 30C0 46.5675 13.4325 60 30 60ZM16.0275 16.8975C19.9 13.275 25.2875 10.4975 30.26 8.73C38.6225 5.7575 47.46 7.51 48.815 12.8425L48.6325 12.675C49.945 17.925 45.4075 24.19 39.5975 26.4375C34.4225 28.46 30.1075 28.125 28.3475 27.5625C26.32 26.8875 25.1575 25.575 24.8575 24.825C24.745 24.525 24.5575 24.0375 24.8575 23.8875C25.045 23.7725 25.12 23.81 25.6425 24.3725C26.1325 24.9 28.045 26.3225 31.72 25.91C41.3575 24.825 47.13 17.36 45.2975 13.35C44.0225 10.5375 36.6325 9.26 27.37 13.875C16.0825 19.5 15.445 24.1475 15.37 25.91C15.1075 30.7475 21.37 33.2975 24.745 36.935C24.855 37.01 24.9325 37.085 25.0075 37.1975C26.0175 36.785 27.445 36.5975 29.695 36.5575C35.1675 36.485 38.245 40.0825 38.1325 43.3075C38.02 45.86 35.6925 46.91 35.28 46.985C34.9825 47.0225 34.7925 47.0225 34.755 46.7975C34.72 46.645 34.8325 46.5725 35.2075 46.345C35.585 46.12 36.6675 45.3325 36.8925 43.985C37.12 42.635 36.07 39.335 30.8175 38.735C28.9425 38.5075 27.4825 38.6575 26.2425 38.995C27.1475 40.9825 27.3325 45.0325 25.2325 48.185C23.0575 51.4075 19.0075 53.3975 15.07 52.3075C13.795 51.9725 11.845 49.345 13.5325 45.67C15.1075 42.18 21.83 38.8075 22.7475 38.3575V38.3425C19.6325 35.66 12.0575 32.045 10.99 26.5175C10.6875 24.95 11.42 21.2 16.0275 16.8975Z" fill="#959595"/>
<path d="M17.0075 49.4025C18.0525 50.0075 20.4875 49.2875 22.2325 47.39C22.805 46.765 23.27 46.09 23.62 45.365C23.685 45.225 23.755 45.0775 23.815 44.925L23.9775 44.475C24.4275 43.115 24.475 41.6075 24.0375 39.995L23.7675 40.1475V40.155C23.7675 40.155 20.645 41.6325 18.4675 43.9275C16.4425 46.065 15.8825 48.7475 17.0075 49.4025Z" fill="#959595"/>
</g>
<defs>
<clipPath id="clip0_1776_26">
<rect width="60" height="60" fill="white"/>
</clipPath>
</defs>
</svg>
