<svg width="30" height="20" viewBox="0 0 30 20" fill="none" xmlns="http://www.w3.org/2000/svg">
<path d="M24.75 5.85815C23.6251 5.4285 22.6321 4.65599 21.885 3.6292C21.0616 2.48517 20.0131 1.56515 18.8198 0.939524C17.6264 0.313899 16.3198 -0.000756548 15 0.0196275C13.2245 -0.119806 11.4669 0.487449 10.077 1.72046C8.68714 2.95347 7.76706 4.72177 7.5 6.67321C8.02601 5.6972 8.81768 4.93141 9.76109 4.48604C10.7045 4.04067 11.751 3.93868 12.75 4.19475C13.873 4.63689 14.8644 5.4139 15.615 6.44033C16.4429 7.57523 17.4934 8.48574 18.6865 9.10258C19.8796 9.71943 21.1838 10.0264 22.5 10C24.2755 10.1394 26.0331 9.53218 27.423 8.29917C28.8129 7.06615 29.7329 5.29786 30 3.34642C29.4835 4.3341 28.6944 5.11145 27.7491 5.56373C26.8037 6.016 25.7523 6.11922 24.75 5.85815ZM5.25 14.1419C6.37492 14.5715 7.36787 15.344 8.115 16.3708C8.93843 17.5148 9.98691 18.4349 11.1802 19.0605C12.3736 19.6861 13.6802 20.0008 15 19.9804C16.7755 20.1198 18.5331 19.5126 19.923 18.2795C21.3129 17.0465 22.2329 15.2782 22.5 13.3268C21.974 14.3028 21.1823 15.0686 20.2389 15.514C19.2955 15.9593 18.249 16.0613 17.25 15.8053C16.127 15.3631 15.1356 14.5861 14.385 13.5597C13.5548 12.4276 12.5039 11.5191 11.3114 10.9025C10.1188 10.2859 8.81565 9.97734 7.5 10C5.72455 9.86057 3.96688 10.4678 2.57701 11.7008C1.18714 12.9338 0.267063 14.7021 0 16.6536C0.51646 15.6659 1.30561 14.8885 2.25095 14.4363C3.19629 13.984 4.24771 13.8808 5.25 14.1419Z" fill="#959595"/>
</svg>
